<?xml version="1.0" standalone="no"?>
<!DOCTYPE svg PUBLIC "-//W3C//DTD SVG 20010904//EN"
 "http://www.w3.org/TR/2001/REC-SVG-20010904/DTD/svg10.dtd">
<svg version="1.0" xmlns="http://www.w3.org/2000/svg"
 width="6667.000000pt" height="5000.000000pt" viewBox="0 0 6667.000000 5000.000000"
 preserveAspectRatio="xMidYMid meet">

<g transform="translate(0.000000,5000.000000) scale(0.100000,-0.100000)"
fill="#000000" stroke="none">
<path d="M17278 27691 c-68 -7 -81 -17 -42 -32 65 -25 186 -42 309 -43 139 -1
185 6 185 28 0 42 -256 68 -452 47z"/>
<path d="M18174 27622 c59 -67 470 -230 554 -220 21 2 3 15 -94 65 -141 73
-276 127 -371 149 -38 8 -77 18 -88 21 -20 6 -20 5 -1 -15z"/>
<path d="M16765 27583 c-45 -15 -72 -28 -62 -31 19 -4 142 31 167 48 28 18
-21 10 -105 -17z"/>
<path d="M16990 27597 c-130 -30 -174 -86 -110 -140 66 -56 225 -58 343 -4 97
44 109 100 29 134 -49 21 -193 26 -262 10z"/>
<path d="M17848 27575 c-56 -18 -69 -45 -44 -93 52 -102 261 -189 431 -180
124 7 172 43 145 108 -45 109 -382 213 -532 165z"/>
<path d="M16498 27475 c-94 -40 -140 -66 -146 -83 -12 -36 149 28 218 87 45
39 25 38 -72 -4z"/>
<path d="M16540 27393 c-57 -20 -116 -60 -163 -112 -97 -108 -28 -204 126
-172 203 42 355 225 237 286 -38 20 -142 19 -200 -2z"/>
<path d="M17422 27399 c-30 -5 -79 -24 -109 -42 -69 -40 -96 -84 -90 -144 12
-113 160 -192 337 -180 118 8 207 55 247 131 47 90 -75 209 -244 236 -65 11
-68 11 -141 -1z"/>
<path d="M16174 27304 c-84 -50 -201 -141 -225 -175 -24 -34 -21 -35 30 -9 64
32 285 220 260 220 -3 0 -32 -16 -65 -36z"/>
<path d="M18886 27264 c-16 -43 89 -166 235 -274 90 -67 219 -133 249 -128 39
6 -185 236 -359 369 -66 51 -113 63 -125 33z"/>
<path d="M18494 27201 c-149 -24 -146 -175 7 -321 159 -153 434 -189 493 -66
22 46 20 72 -8 131 -30 65 -116 142 -215 194 -107 55 -195 75 -277 62z"/>
<path d="M16030 27089 c-75 -43 -198 -170 -234 -242 -36 -73 -45 -137 -21
-157 27 -22 88 -16 152 16 77 37 199 160 236 238 32 64 39 134 18 160 -22 27
-88 20 -151 -15z"/>
<path d="M16807 27110 c-158 -40 -287 -175 -287 -302 0 -63 24 -109 72 -138
177 -107 495 37 533 242 13 71 -33 146 -112 183 -43 21 -151 28 -206 15z"/>
<path d="M15685 26908 l-110 -113 113 110 c61 60 112 111 112 112 0 8 -13 -5
-115 -109z"/>
<path d="M14325 27000 c-640 -72 -985 -367 -985 -840 0 -127 22 -215 85 -345
153 -313 464 -626 935 -940 232 -154 395 -247 675 -385 1096 -538 2420 -854
3855 -920 357 -16 1100 -9 1100 10 0 4 -21 11 -47 15 -201 29 -1023 206 -1481
320 -1562 387 -2660 810 -3311 1275 -490 350 -772 663 -861 958 -18 60 -22 91
-18 175 3 92 7 109 39 177 94 197 333 353 674 440 50 13 94 26 98 30 29 25
-586 49 -758 30z"/>
<path d="M17894 26970 c-63 -13 -107 -34 -149 -71 -133 -117 -85 -327 95 -419
99 -50 193 -61 295 -35 149 39 237 152 215 275 -17 92 -108 189 -218 230 -62
23 -178 33 -238 20z"/>
<path d="M15543 26698 c-112 -107 -234 -330 -237 -433 -1 -47 1 -50 25 -53 18
-2 39 9 72 39 119 104 237 334 237 461 0 55 -28 50 -97 -14z"/>
<path d="M16118 26676 c-105 -37 -214 -140 -270 -253 -42 -85 -50 -181 -20
-240 81 -158 388 -41 503 193 29 59 34 79 34 141 0 80 -15 110 -75 151 -38 26
-112 29 -172 8z"/>
<path d="M17188 26600 c-73 -13 -153 -54 -213 -111 -96 -91 -133 -203 -102
-310 66 -225 401 -267 592 -75 188 188 112 447 -144 496 -59 11 -66 11 -133 0z"/>
<path d="M24410 26323 c-41 -20 -114 -45 -163 -57 -105 -25 -110 -41 -21 -66
76 -20 125 -49 141 -81 10 -18 13 -210 13 -831 0 -693 -2 -809 -15 -821 -8 -8
-57 -23 -110 -33 -84 -16 -95 -20 -95 -38 0 -21 3 -21 330 -21 326 0 330 0
330 20 0 18 -15 25 -115 49 -64 15 -122 35 -130 43 -13 12 -15 70 -15 363 l0
348 49 59 c59 70 153 141 219 165 108 39 239 14 313 -61 76 -75 79 -94 79
-507 0 -413 8 -383 -115 -417 -63 -18 -81 -27 -83 -42 -3 -20 4 -20 288 -20
l290 0 0 23 c0 12 -6 22 -14 22 -39 0 -161 35 -177 51 -18 18 -19 42 -19 394
0 239 -4 393 -11 427 -24 110 -83 195 -171 244 -50 28 -59 29 -174 29 l-121 0
-88 -44 c-69 -34 -108 -63 -177 -129 l-88 -85 0 527 0 526 -37 -1 c-21 0 -72
-17 -113 -36z"/>
<path d="M15205 26267 c-135 -284 -220 -530 -174 -501 36 22 237 559 217 579
-2 2 -21 -33 -43 -78z"/>
<path d="M22153 26286 c-63 -28 -90 -113 -58 -180 21 -43 59 -66 110 -66 82 0
131 56 122 143 -8 89 -93 139 -174 103z"/>
<path d="M19295 26284 c-16 -2 -188 -11 -381 -20 -329 -16 -351 -18 -347 -35
4 -12 18 -21 42 -25 107 -17 197 -46 221 -69 l25 -25 3 -804 c2 -793 2 -803
-18 -829 -23 -29 -74 -43 -199 -53 -74 -6 -81 -9 -81 -28 l0 -21 410 0 c408 0
410 0 410 21 0 17 -12 23 -77 38 -43 10 -97 27 -120 37 -73 35 -73 35 -73 468
l0 381 105 0 c114 0 141 -8 184 -54 14 -14 129 -218 256 -454 l231 -427 262
-3 263 -2 -3 22 c-2 17 -14 24 -63 34 -157 32 -228 82 -326 230 -49 72 -388
667 -392 686 -1 6 29 29 67 50 187 104 266 210 282 381 24 264 -107 429 -382
481 -77 14 -238 25 -299 20z m84 -99 c137 -33 250 -120 305 -235 28 -59 31
-74 31 -165 0 -93 -2 -105 -33 -167 -18 -36 -49 -81 -69 -99 -86 -75 -237
-119 -409 -119 l-94 0 0 400 0 400 103 0 c56 0 131 -7 166 -15z"/>
<path d="M34440 26275 c-118 -7 -317 -16 -442 -21 l-228 -7 0 -23 c0 -19 7
-24 38 -29 143 -24 205 -52 237 -105 20 -34 20 -48 20 -818 l0 -784 -26 -22
c-20 -17 -50 -26 -118 -35 -83 -12 -91 -15 -91 -34 l0 -22 400 0 c395 0 400 0
400 20 0 18 -14 23 -112 44 -134 28 -185 47 -198 72 -16 29 -13 1666 3 1676 6
4 65 9 129 11 208 7 361 -40 461 -143 119 -120 161 -280 121 -455 -50 -223
-288 -362 -522 -307 -105 24 -90 -18 27 -76 57 -28 77 -32 166 -35 168 -7 303
41 417 146 126 117 180 238 180 407 0 269 -166 480 -417 529 -110 22 -213 24
-445 11z"/>
<path d="M35940 26259 c-327 -84 -485 -382 -350 -656 65 -131 194 -232 513
-404 155 -84 294 -177 337 -225 59 -68 75 -111 75 -204 0 -70 -5 -94 -25 -135
-75 -153 -273 -247 -461 -218 -204 32 -397 223 -439 437 -11 52 -17 66 -32 66
-10 0 -18 -3 -18 -7 0 -5 -7 -89 -15 -188 -22 -272 -25 -250 43 -283 65 -33
159 -67 228 -82 160 -36 381 -29 522 15 247 78 396 295 378 550 -16 238 -96
320 -546 560 -355 189 -444 271 -444 410 0 77 26 136 89 198 122 120 325 147
491 67 101 -49 178 -152 219 -294 13 -43 21 -56 33 -54 15 3 18 25 23 168 4
130 3 168 -8 181 -22 26 -164 88 -239 104 -100 21 -281 19 -374 -6z"/>
<path d="M31660 26238 c0 -18 22 -26 130 -47 77 -16 115 -42 144 -98 17 -35
719 -1684 753 -1771 3 -8 18 -12 36 -10 l30 3 348 899 c210 541 358 909 372
924 33 35 64 48 147 62 101 16 110 19 110 38 0 16 -30 17 -370 17 -344 0 -370
-1 -370 -17 0 -20 0 -19 150 -42 136 -21 155 -34 155 -107 0 -45 -42 -170
-250 -746 -137 -381 -252 -689 -256 -685 -9 9 -546 1300 -570 1371 -24 69 -25
123 -1 144 22 20 104 37 181 37 86 0 131 10 131 29 0 14 -41 16 -435 16 -404
0 -435 -1 -435 -17z"/>
<path d="M15500 26179 c-80 -33 -173 -159 -216 -293 -47 -146 -31 -300 35
-336 148 -79 388 287 341 517 -20 93 -89 142 -160 112z"/>
<path d="M16343 26091 c-107 -39 -193 -124 -250 -246 -39 -86 -45 -209 -13
-283 83 -192 340 -204 521 -23 80 80 122 169 127 269 5 89 -9 143 -53 203 -67
93 -204 126 -332 80z"/>
<path d="M17585 25883 c-172 -62 -269 -188 -268 -348 2 -206 157 -345 372
-333 175 10 324 139 349 301 24 155 -52 299 -196 368 -65 31 -188 36 -257 12z"/>
<path d="M22249 25620 c-41 -43 -79 -70 -137 -98 -44 -22 -90 -42 -102 -45
-17 -4 -21 -12 -18 -34 3 -25 8 -29 50 -34 62 -9 100 -29 115 -59 11 -20 13
-155 10 -660 -3 -618 -3 -637 -25 -713 -28 -100 -70 -180 -134 -252 -35 -38
-47 -60 -40 -67 13 -13 36 -1 110 61 76 64 145 156 193 257 70 148 69 124 69
957 0 853 8 791 -91 687z"/>
<path d="M27475 25547 c-62 -64 -95 -89 -147 -112 -52 -23 -68 -35 -68 -51 0
-17 8 -23 33 -27 59 -9 107 -35 117 -62 6 -16 10 -180 10 -410 0 -452 7 -423
-117 -453 -60 -14 -73 -20 -73 -37 0 -20 7 -20 305 -20 300 0 306 0 303 20 -2
16 -18 23 -88 38 -103 22 -126 36 -139 84 -7 23 -11 169 -11 366 0 283 2 334
16 363 49 103 271 208 402 190 90 -12 153 -63 199 -161 l28 -60 3 -341 3 -341
-26 -31 c-26 -31 -34 -34 -212 -88 -7 -2 -13 -11 -13 -21 0 -17 20 -18 330
-18 325 0 330 0 330 20 0 18 -12 23 -90 39 -147 30 -135 -12 -138 444 l-3 391
35 35 c156 155 404 184 523 60 72 -74 76 -100 81 -479 4 -384 2 -397 -61 -425
-23 -10 -68 -24 -99 -31 -48 -10 -58 -16 -58 -33 0 -21 2 -21 290 -21 285 0
291 0 288 20 -2 16 -16 22 -73 32 -38 7 -76 20 -85 28 -13 13 -16 75 -21 418
-4 283 -10 414 -19 442 -35 110 -97 187 -185 227 -44 20 -65 23 -180 23 -112
-1 -138 -4 -184 -23 -67 -28 -145 -80 -211 -139 -28 -25 -52 -44 -53 -42 -2 2
-18 28 -36 57 -72 114 -149 152 -312 152 -144 0 -232 -37 -390 -166 -36 -30
-69 -54 -73 -54 -3 0 -6 63 -6 140 0 139 0 140 -22 139 -15 0 -51 -29 -103
-82z"/>
<path d="M20952 25555 c-113 -25 -208 -79 -297 -169 -124 -124 -175 -250 -175
-431 0 -389 309 -656 710 -614 213 22 380 121 489 289 154 238 99 600 -122
795 -60 54 -189 118 -265 134 -72 15 -263 12 -340 -4z m340 -68 c72 -35 157
-125 197 -211 47 -97 64 -184 64 -326 0 -140 -22 -243 -71 -334 -39 -72 -127
-157 -197 -192 -55 -27 -69 -29 -170 -29 -101 0 -115 2 -168 28 -176 87 -268
292 -253 567 10 195 55 325 144 415 83 85 168 116 302 112 79 -3 105 -8 152
-30z"/>
<path d="M23172 25555 c-113 -25 -208 -79 -297 -169 -124 -124 -175 -250 -175
-431 0 -389 309 -656 710 -614 213 22 380 121 489 289 154 238 99 600 -122
795 -60 54 -189 118 -265 134 -72 15 -263 12 -340 -4z m340 -68 c72 -35 157
-125 197 -211 47 -97 64 -184 64 -326 0 -140 -22 -243 -71 -334 -39 -72 -127
-157 -197 -192 -55 -27 -69 -29 -170 -29 -101 0 -115 2 -168 28 -176 87 -268
292 -253 567 10 195 55 325 144 415 83 85 168 116 302 112 79 -3 105 -8 152
-30z"/>
<path d="M26232 25555 c-113 -25 -208 -79 -297 -169 -124 -124 -175 -250 -175
-431 0 -389 309 -656 710 -614 213 22 380 121 489 289 154 238 99 600 -122
795 -60 54 -189 118 -265 134 -72 15 -263 12 -340 -4z m340 -68 c72 -35 157
-125 197 -211 47 -97 64 -184 64 -326 0 -140 -22 -243 -71 -334 -39 -72 -127
-157 -197 -192 -55 -27 -69 -29 -170 -29 -101 0 -115 2 -168 28 -176 87 -268
292 -253 567 10 195 55 325 144 415 83 85 168 116 302 112 79 -3 105 -8 152
-30z"/>
<path d="M30001 25545 c-144 -50 -251 -146 -322 -290 -92 -187 -93 -431 -2
-623 48 -102 143 -201 237 -247 191 -94 459 -50 644 104 80 67 104 101 96 139
l-6 30 -62 -49 c-79 -64 -165 -106 -245 -120 -88 -16 -206 1 -287 41 -79 39
-165 129 -206 215 -41 89 -64 231 -52 322 l9 68 418 3 418 2 -7 48 c-24 159
-111 279 -253 346 -61 28 -75 31 -186 34 -107 2 -128 0 -194 -23z m276 -50
c64 -19 123 -82 153 -161 25 -68 25 -86 1 -115 l-19 -24 -297 -3 -298 -3 6 31
c18 87 106 208 181 247 84 44 185 54 273 28z"/>
<path d="M15633 25491 c-45 -21 -118 -91 -128 -122 -5 -14 -1 -25 12 -34 96
-74 188 -134 293 -194 144 -83 141 -84 141 42 0 128 -44 237 -117 294 -48 36
-139 43 -201 14z"/>
<path d="M16769 25366 c-111 -43 -191 -114 -237 -214 -24 -50 -27 -69 -27
-158 0 -92 3 -105 30 -160 l30 -59 140 -57 c160 -66 185 -67 292 -18 151 70
239 235 212 401 -17 109 -76 192 -171 244 -46 25 -66 30 -143 32 -58 2 -102
-2 -126 -11z"/>
<path d="M30850 24965 l0 -65 350 0 350 0 0 65 0 65 -350 0 -350 0 0 -65z"/>
<path d="M15012 24227 c58 -206 193 -507 229 -507 27 0 -7 175 -66 338 -20 53
-43 116 -51 140 -17 45 -34 61 -96 86 l-36 16 20 -73z"/>
<path d="M15496 24058 c-40 -151 94 -412 253 -492 133 -68 226 -6 225 149 0
72 -34 198 -57 212 -16 10 -396 153 -407 153 -4 0 -10 -10 -14 -22z"/>
<path d="M16450 23757 c0 -8 14 -41 30 -74 33 -67 105 -140 168 -172 60 -31
168 -53 216 -46 57 10 122 49 151 93 48 75 62 67 -260 143 -159 38 -293 69
-297 69 -5 0 -8 -6 -8 -13z"/>
<path d="M15397 23643 c-13 -12 -7 -73 12 -122 49 -129 234 -342 343 -395 71
-35 92 -32 96 12 4 42 -50 159 -112 246 -51 70 -182 201 -241 240 -38 25 -84
34 -98 19z"/>
<path d="M16164 23515 c-70 -36 -84 -138 -30 -229 38 -66 145 -160 228 -200
129 -64 228 -71 285 -21 40 34 39 107 -1 190 -42 84 -152 192 -241 236 -82 40
-188 51 -241 24z"/>
<path d="M17210 23428 c-82 -43 -110 -141 -66 -227 77 -148 341 -257 472 -195
135 64 44 318 -145 412 -80 39 -197 44 -261 10z"/>
<path d="M16028 23070 c-41 -25 -16 -90 64 -166 68 -65 127 -105 230 -154 141
-67 259 -86 275 -43 32 82 -339 355 -501 369 -28 3 -59 0 -68 -6z"/>
<path d="M16890 23021 c-96 -51 -7 -184 175 -260 150 -63 339 -79 377 -31 25
31 7 69 -68 139 -139 131 -382 207 -484 152z"/>
<path d="M17850 22969 c-103 -43 -70 -135 74 -204 118 -57 287 -85 314 -52 30
36 -101 186 -203 233 -62 28 -147 39 -185 23z"/>
<path d="M16160 22727 c0 -9 123 -83 219 -132 161 -80 372 -157 389 -141 14
14 -36 46 -183 117 -189 91 -334 149 -387 156 -21 3 -38 3 -38 0z"/>
<path d="M17665 22706 c-41 -30 5 -66 121 -96 124 -33 481 -41 448 -10 -14 12
-218 77 -314 100 -99 23 -227 27 -255 6z"/>
<path d="M16824 22690 c-12 -4 -24 -16 -28 -26 -23 -61 151 -144 372 -175 84
-12 257 -9 279 4 38 24 -55 78 -237 137 -189 62 -327 84 -386 60z"/>
<path d="M18315 22525 c-5 -2 -113 -25 -240 -52 -213 -44 -271 -69 -102 -43
113 17 413 98 367 98 -8 0 -19 -1 -25 -3z"/>
<path d="M16951 22471 c-31 -20 63 -59 209 -86 114 -22 388 -26 434 -7 16 7
26 15 23 18 -5 5 -450 63 -592 78 -33 3 -66 2 -74 -3z"/>
<path d="M17650 22340 c-52 -4 -151 -9 -220 -10 l-125 -3 70 -9 c102 -14 409
-4 465 15 l45 15 -70 -1 c-38 0 -113 -4 -165 -7z"/>
</g>
</svg>
